<?xml version="1.0" encoding="utf-8"?>
<!-- Generator: Adobe Illustrator 25.0.1, SVG Export Plug-In . SVG Version: 6.00 Build 0)  -->
<svg version="1.1" id="Layer_1" xmlns="http://www.w3.org/2000/svg" xmlns:xlink="http://www.w3.org/1999/xlink" x="0px" y="0px"
	 viewBox="0 0 750 750" style="enable-background:new 0 0 750 750;" xml:space="preserve">
<style type="text/css">
	.st0{display:none;}
	.st1{display:inline;fill:#F06163;}
	.st2{display:inline;fill:#FFFFFF;}
	.st3{display:inline;fill:#FFC545;}
	.st4{fill:#FFFFFF;}
	.st5{fill:#ACC758;}
</style>
<g class="st0">
	<path class="st1" d="M375.45,24.49c193.4,0,350.18,156.78,350.18,350.18c0,193.4-156.78,350.18-350.18,350.18
		c-193.4,0-350.18-156.78-350.18-350.18l0,0C24.72,181.82,180.61,25.04,373.46,24.49C374.12,24.49,374.79,24.49,375.45,24.49z"/>
</g>
<g class="st0">
	<path class="st2" d="M544.81,476.28L443.16,374.67l101.66-101.61l-67.75-67.75L375.45,306.98L273.79,205.31l-67.71,67.75
		L307.7,374.67L206.08,476.28l67.71,67.75l101.66-101.6l101.61,101.6L544.81,476.28z M544.81,476.28"/>
</g>
<g class="st0">
	<path class="st3" d="M375.45,24.49c193.4,0,350.18,156.78,350.18,350.18c0,193.4-156.78,350.18-350.18,350.18
		c-193.4,0-350.18-156.78-350.18-350.18l0,0C24.72,181.82,180.61,25.04,373.46,24.49C374.12,24.49,374.79,24.49,375.45,24.49z"/>
</g>
<g class="st0">
	<rect x="339.74" y="514.83" class="st4" width="71.42" height="71.42"/>
	<rect x="339.74" y="163.09" class="st4" width="71.42" height="280.33"/>
</g>
<g>
	<path class="st5" d="M375.45,24.49c193.4,0,350.18,156.78,350.18,350.18c0,193.4-156.78,350.18-350.18,350.18
		c-193.4,0-350.18-156.78-350.18-350.18l0,0C24.72,181.82,180.61,25.04,373.46,24.49C374.12,24.49,374.79,24.49,375.45,24.49z"/>
	<polygon class="st4" points="569.44,278.17 320.73,526.88 181.46,388.6 238.16,332.89 320.73,414.46 512.74,222.46 	"/>
</g>
</svg>
